<svg width="20" height="14" viewBox="0 0 20 14" fill="none" xmlns="http://www.w3.org/2000/svg">
<rect x="14.9185" width="0.78" height="17" transform="rotate(39.9605 14.9185 0)" fill="#A9A9A9"/>
<path d="M12.803 1.31009C11.9454 1.11499 11.011 1 10 1C5.27428 1 2.22349 3.5124 0.847633 4.97533C0.294486 5.56349 0.295743 6.43804 0.848986 7.02611C1.66772 7.89637 3.07862 9.13726 5.08168 10M15.1351 2.09585C17.0239 2.95295 18.3628 4.13594 19.1516 4.9745C19.7048 5.56261 19.7055 6.43651 19.1524 7.02467C17.7765 8.4876 14.7257 11 10 11C9.23187 11 8.508 10.9336 7.82837 10.8162" stroke="#A9A9A9" stroke-width="0.733333"/>
<path d="M12.9667 6C12.9667 7.4183 11.677 8.63219 10.0024 8.63333L12.883 5.37635C12.9378 5.57642 12.9667 5.78523 12.9667 6ZM7.03341 6C7.03341 4.58103 8.32434 3.36667 10.0001 3.36667C10.2305 3.36667 10.4543 3.38996 10.6689 3.43389L7.40965 7.28376C7.1687 6.90197 7.03341 6.46398 7.03341 6Z" fill="#A9A9A9" stroke="#A9A9A9" stroke-width="0.733333"/>
</svg>
