<svg width="20" height="12" viewBox="0 0 20 12" fill="none" xmlns="http://www.w3.org/2000/svg">
<path d="M19.1524 4.97533C19.7055 5.56349 19.7055 6.43651 19.1524 7.02467C17.7765 8.4876 14.7257 11 10 11C5.27428 11 2.22349 8.4876 0.847633 7.02467C0.294486 6.43651 0.294486 5.56349 0.847633 4.97533C2.22349 3.5124 5.27428 1 10 1C14.7257 1 17.7765 3.5124 19.1524 4.97533Z" stroke="#A9A9A9" stroke-width="0.733333"/>
<path d="M12.9667 6C12.9667 7.41897 11.6758 8.63333 10.0001 8.63333C8.32434 8.63333 7.03341 7.41897 7.03341 6C7.03341 4.58103 8.32434 3.36667 10.0001 3.36667C11.6758 3.36667 12.9667 4.58103 12.9667 6Z" fill="#A9A9A9" stroke="#A9A9A9" stroke-width="0.733333"/>
</svg>
