<svg width="22" height="26" viewBox="0 0 22 26" fill="none" xmlns="http://www.w3.org/2000/svg">
    <g filter="url(#filter0_d)">
        <path d="M19 11C19 15.4183 12 22.5 11 22.5C10 22.5 3 15.4183 3 11C3 6.58172 6.58172 3 11 3C15.4183 3 19 6.58172 19 11Z" fill="#0029FF"/>
        <path d="M17.5 11C17.5 11.7494 17.1889 12.7653 16.5613 13.9659C15.9485 15.1381 15.1044 16.354 14.2078 17.4647C13.3129 18.5733 12.3944 19.5417 11.6564 20.2204C11.4038 20.4527 11.183 20.6413 11 20.7858C10.817 20.6413 10.5962 20.4527 10.3436 20.2204C9.60564 19.5417 8.68711 18.5733 7.79217 17.4647C6.89558 16.354 6.05146 15.1381 5.43869 13.9659C4.81106 12.7653 4.5 11.7494 4.5 11C4.5 7.41015 7.41015 4.5 11 4.5C14.5899 4.5 17.5 7.41015 17.5 11ZM10.5854 21.077C10.5661 21.0866 10.5698 21.0827 10.5931 21.0729C10.5898 21.0747 10.5872 21.0761 10.5854 21.077ZM11.4069 21.0729C11.4302 21.0827 11.4339 21.0866 11.4146 21.077C11.4128 21.0761 11.4102 21.0747 11.4069 21.0729Z" stroke="white" stroke-width="3"/>
    </g>
    <defs>
        <filter id="filter0_d" x="0" y="0" width="22" height="25.5" filterUnits="userSpaceOnUse" color-interpolation-filters="sRGB">
            <feFlood flood-opacity="0" result="BackgroundImageFix"/>
            <feColorMatrix in="SourceAlpha" type="matrix" values="0 0 0 0 0 0 0 0 0 0 0 0 0 0 0 0 0 0 127 0"/>
            <feOffset/>
            <feGaussianBlur stdDeviation="1.5"/>
            <feColorMatrix type="matrix" values="0 0 0 0 0 0 0 0 0 0 0 0 0 0 0 0 0 0 0.2 0"/>
            <feBlend mode="normal" in2="BackgroundImageFix" result="effect1_dropShadow"/>
            <feBlend mode="normal" in="SourceGraphic" in2="effect1_dropShadow" result="shape"/>
        </filter>
    </defs>
</svg>
